Coordinates
version=1
nRows=13
nColumns=22
inDegrees=yes

Units are S.I. units (second, meters, Newtons, ...)
If the header above contains a line with 'inDegrees', this indicates whether rotational values are in degrees (yes) or radians (no).

endheader
time	pelvis_tilt	pelvis_list	pelvis_rotation	pelvis_tx	pelvis_ty	pelvis_tz	hip_flexion_r	hip_adduction_r	hip_rotation_r	knee_angle_r	ankle_angle_r	subtalar_angle_r	hip_flexion_l	hip_adduction_l	hip_rotation_l	knee_angle_l	ankle_angle_l	subtalar_angle_l	lumbar_extension	lumbar_bending	lumbar_rotation
      4.72000000	      1.41161640	     -3.74540474	      6.44836323	      0.70799352	      0.99988326	     -0.01484576	     21.16858734	      3.62335747	     -6.54510052	    -22.22419077	     -1.01588306	      2.28076380	     -5.40387786	    -10.04506892	    -10.26947475	    -45.22872551	     -5.13096535	      6.36439453	     -0.17038572	      2.24476005	     -7.31622088
      4.73000000	      1.46337745	     -3.86957102	      6.73279519	      0.71659483	      1.00127636	     -0.01333888	     20.60770471	      3.89199866	     -6.69083914	    -22.22178579	     -0.74486374	      1.75487203	     -4.21490147	    -10.62942676	    -10.32143469	    -47.32618103	     -5.51963439	      5.97968131	     -0.20037550	      2.29709024	     -7.45997761
      4.74000000	      1.50683210	     -3.95180375	      7.00645728	      0.72488564	      1.00262302	     -0.01192392	     20.05561473	      4.11352878	     -6.83839416	    -22.18924662	     -0.48455431	      1.24750159	     -3.00435148	    -11.09171140	    -10.24535893	    -49.28935595	     -5.62395514	      5.55193969	     -0.25380928	      2.30367988	     -7.52400063
      4.75000000	      1.55414896	     -3.99554923	      7.25142391	      0.73287413	      1.00394791	     -0.01056869	     19.49793615	      4.29803709	     -6.97147191	    -22.12377539	     -0.23122527	      0.85898108	     -1.80422387	    -11.43467949	    -10.08633297	    -51.08356863	     -5.44467938	      5.16125077	     -0.34434164	      2.27511225	     -7.54938028
      4.76000000	      1.59348655	     -4.00250504	      7.45794614	      0.74058903	      1.00523297	     -0.00927852	     18.95149016	      4.44640920	     -7.07748911	    -22.04122887	      0.02704704	      0.53298218	     -0.62088513	    -11.65547746	     -9.87197677	    -52.67549782	     -5.01429097	      4.76605239	     -0.45051515	      2.21185602	     -7.48854684
      4.77000000	      1.62396071	     -3.97065603	      7.60643781	      0.74804034	      1.00648546	     -0.00801111	     18.41761901	      4.56113370	     -7.14756806	    -21.94309883	      0.28095408	      0.27633949	      0.52601020	    -11.75889779	     -9.64870904	    -54.03861831	     -4.36555971	      4.37536199	     -0.57070395	      2.11038025	     -7.33732488
      4.78000000	      1.64728724	     -3.90541361	      7.69067817	      0.75524307	      1.00770436	     -0.00675217	     17.89616268	      4.64915414	     -7.16861761	    -21.83540160	      0.53365613	      0.09273624	      1.62210269	    -11.76424972	     -9.45396167	    -55.15755096	     -3.54130899	      4.00219080	     -0.70099704	      1.97764416	     -7.10407498
      4.79000000	      1.66419892	     -3.81171243	      7.70273681	      0.76222418	      1.00889323	     -0.00547968	     17.38406500	      4.71653601	     -7.14315528	    -21.71648121	      0.79104644	     -0.01925459	      2.65317683	    -11.69242860	     -9.32012485	    -56.01997026	     -2.58590281	      3.65935926	     -0.83717406	      1.81847338	     -6.78170410
      4.80000000	      1.67810759	     -3.69926762	      7.64558773	      0.76900151	      1.01004968	     -0.00418185	     16.87840170	      4.77264202	     -7.07055559	    -21.58724765	      1.05558915	     -0.06575658	      3.61011386	    -11.57273711	     -9.26881744	    -56.62358058	     -1.54689880	      3.36231619	     -0.97606047	      1.64168151	     -6.37682197
      4.81000000	      1.70906797	     -3.57160910	      7.53166542	      0.77557742	      1.01119247	     -0.00286270	     16.36463986	      4.81787158	     -6.97815515	    -21.46083511	      1.32173941	     -0.07251014	      4.47058411	    -11.42591280	     -9.30226689	    -56.97187890	     -0.45157910	      3.14264697	     -1.14157607	      1.45247916	     -5.91266841
      4.82000000	      1.71035544	     -3.44927262	      7.35481757	      0.78199054	      1.01224879	     -0.00148859	     15.88130782	      4.87491780	     -6.82853922	    -21.31323325	      1.59443564	     -0.03614917	      5.28406432	    -11.29055698	     -9.45190595	    -57.07688240	      0.64589534	      2.92727292	     -1.26599856	      1.26552369	     -5.39206168
      4.83000000	      1.71138740	     -3.33065406	      7.12633776	      0.78824404	      1.01325996	     -0.00005393	     15.40375107	      4.94173065	     -6.64404875	    -21.15655630	      1.86978523	      0.03225776	      6.01427435	    -11.17887910	     -9.71328148	    -56.93860776	      1.72727489	      2.74423265	     -1.38334504	      1.07766315	     -4.82854923
      4.84000000	      1.71586940	     -3.21931659	      6.85864313	      0.79437071	      1.01423395	      0.00142299	     14.92105248	      5.01998302	     -6.42643482	    -20.98129167	      2.13842054	      0.12264863	      6.65586661	    -11.10510259	    -10.08729189	    -56.56441858	      2.76627752	      2.59180675	     -1.49265935	      0.89489102	     -4.24507421
